<?xml version="1.0" encoding="UTF-8"?>
<svg version="1.1" xmlns="http://www.w3.org/2000/svg" width="662" height="377">
<path d="M0 0 C3.71191685 1.51088073 7.51541826 2.73232765 11.33203125 3.94921875 C11.33203125 4.60921875 11.33203125 5.26921875 11.33203125 5.94921875 C12.15703125 6.19671875 12.98203125 6.44421875 13.83203125 6.69921875 C20.66830911 9.14074656 25.86536778 12.21144374 31.33203125 16.94921875 C32.28078125 17.50609375 33.22953125 18.06296875 34.20703125 18.63671875 C34.90828125 19.06984375 35.60953125 19.50296875 36.33203125 19.94921875 C36.33203125 20.60921875 36.33203125 21.26921875 36.33203125 21.94921875 C37.30140625 22.21734375 38.27078125 22.48546875 39.26953125 22.76171875 C40.28015625 23.15359375 41.29078125 23.54546875 42.33203125 23.94921875 C42.66203125 24.93921875 42.99203125 25.92921875 43.33203125 26.94921875 C44.99473412 28.28749179 46.66119306 29.6211166 48.33203125 30.94921875 C48.33203125 31.60921875 48.33203125 32.26921875 48.33203125 32.94921875 C48.90953125 33.19671875 49.48703125 33.44421875 50.08203125 33.69921875 C58.72120715 38.49876092 65.52398335 49.53513493 70.33203125 57.94921875 C70.68910156 58.56023437 71.04617188 59.17125 71.4140625 59.80078125 C76.35427996 68.42655777 80.82498146 77.30671955 83.33203125 86.94921875 C83.81027344 87.99078125 84.28851563 89.03234375 84.78125 90.10546875 C86.55244864 94.16751743 87.27925582 98.21489043 87.95703125 102.57421875 C88.19883752 104.04563562 88.4410155 105.51699145 88.68359375 106.98828125 C88.78494629 107.62975098 88.88629883 108.2712207 88.99072266 108.93212891 C89.23693033 110.38718454 89.53301098 111.83410591 89.85986328 113.27319336 C90.76392196 118.39697165 90.55762679 123.61192348 90.57226562 128.80200195 C90.58185715 130.84955297 90.61286287 132.89604834 90.64453125 134.94335938 C90.71626896 144.00284635 89.53669652 152.1500616 87.33203125 160.94921875 C86.99090798 162.57260134 86.65567057 164.19726033 86.33203125 165.82421875 C85.54990027 169.32764843 84.43386661 172.58739698 83.11328125 175.921875 C82.29099058 178.0557193 81.58923496 180.20821854 80.89453125 182.38671875 C79.34862802 187.06427129 77.40233386 191.48318134 75.33203125 195.94921875 C74.85378906 196.99722656 74.37554687 198.04523438 73.8828125 199.125 C66.31556432 215.6509551 66.31556432 215.6509551 63.76953125 219.01171875 C61.71271918 221.78394371 60.62342179 224.75148979 59.33203125 227.94921875 C58.67203125 227.94921875 58.01203125 227.94921875 57.33203125 227.94921875 C57.12900391 228.74972656 57.12900391 228.74972656 56.921875 229.56640625 C55.24057704 235.38550937 52.66127666 239.74417886 49.05078125 244.58984375 C47.31600856 246.97121353 45.81523515 249.40486083 44.33203125 251.94921875 C43.4843394 253.39054643 42.63062702 254.82835871 41.76953125 256.26171875 C41.14884766 257.30779297 41.14884766 257.30779297 40.515625 258.375 C40.12503906 258.89449219 39.73445312 259.41398437 39.33203125 259.94921875 C38.67203125 259.94921875 38.01203125 259.94921875 37.33203125 259.94921875 C36.67203125 261.92921875 36.01203125 263.90921875 35.33203125 265.94921875 C34.67203125 265.94921875 34.01203125 265.94921875 33.33203125 265.94921875 C32.67203125 267.92921875 32.01203125 269.90921875 31.33203125 271.94921875 C30.67203125 271.94921875 30.01203125 271.94921875 29.33203125 271.94921875 C28.97625 273.01462891 28.97625 273.01462891 28.61328125 274.1015625 C27.11810474 277.42468345 25.20016909 279.74760981 22.83203125 282.51171875 C20.23698973 285.5490969 17.92564493 288.26831759 16.33203125 291.94921875 C15.67203125 291.94921875 15.01203125 291.94921875 14.33203125 291.94921875 C14.079375 292.49964844 13.82671875 293.05007813 13.56640625 293.6171875 C9.6187779 301.07520688 3.86491418 307.62592397 -1.66796875 313.94921875 C-2.32796875 314.93921875 -2.98796875 315.92921875 -3.66796875 316.94921875 C-4.32796875 316.94921875 -4.98796875 316.94921875 -5.66796875 316.94921875 C-6.03921875 317.78453125 -6.03921875 317.78453125 -6.41796875 318.63671875 C-7.89721693 321.37332788 -9.60264314 323.62572744 -11.66796875 325.94921875 C-12.32796875 325.94921875 -12.98796875 325.94921875 -13.66796875 325.94921875 C-13.77109375 326.58859375 -13.87421875 327.22796875 -13.98046875 327.88671875 C-14.20734375 328.56734375 -14.43421875 329.24796875 -14.66796875 329.94921875 C-15.65796875 330.27921875 -16.64796875 330.60921875 -17.66796875 330.94921875 C-17.81234375 331.56796875 -17.95671875 332.18671875 -18.10546875 332.82421875 C-18.85771167 335.66602535 -20.33375999 336.2715062 -22.66796875 337.94921875 C-22.99796875 338.93921875 -23.32796875 339.92921875 -23.66796875 340.94921875 C-25.00130208 341.94921875 -26.33463542 342.94921875 -27.66796875 343.94921875 C-27.99796875 344.93921875 -28.32796875 345.92921875 -28.66796875 346.94921875 C-30.48046875 348.703125 -30.48046875 348.703125 -32.66796875 350.51171875 C-35.61756054 352.87132202 -35.61756054 352.87132202 -37.66796875 355.94921875 C-38.32796875 355.94921875 -38.98796875 355.94921875 -39.66796875 355.94921875 C-39.91289062 356.5215625 -40.1578125 357.09390625 -40.41015625 357.68359375 C-41.87906974 360.32946277 -43.62145119 362.09775014 -45.79296875 364.19921875 C-46.87964844 365.25882812 -46.87964844 365.25882812 -47.98828125 366.33984375 C-48.54257812 366.8709375 -49.096875 367.40203125 -49.66796875 367.94921875 C-53.17338174 366.73739807 -55.30303478 365.67813511 -57.60546875 362.76171875 C-58.10691406 362.14296875 -58.60835937 361.52421875 -59.125 360.88671875 C-59.63417969 360.24734375 -60.14335937 359.60796875 -60.66796875 358.94921875 C-61.70396932 357.71527266 -62.74550967 356.48595304 -63.79296875 355.26171875 C-64.2828125 354.68679688 -64.77265625 354.111875 -65.27734375 353.51953125 C-66.47266597 352.16975729 -67.75119585 350.89449763 -69.04296875 349.63671875 C-70.66796875 347.94921875 -70.66796875 347.94921875 -70.66796875 345.94921875 C-71.56322266 345.56056641 -71.56322266 345.56056641 -72.4765625 345.1640625 C-74.83055312 343.85908731 -76.05082531 342.59447662 -77.73046875 340.51171875 C-79.12957594 338.79345184 -80.48983795 337.12437243 -82.0703125 335.5703125 C-85.13954188 332.45605775 -87.76923553 328.94364794 -90.51171875 325.54296875 C-92.5154262 323.02028971 -92.5154262 323.02028971 -94.44921875 321.29296875 C-95.66796875 319.94921875 -95.66796875 319.94921875 -95.66796875 316.94921875 C-96.56515625 316.85640625 -96.56515625 316.85640625 -97.48046875 316.76171875 C-100.55714389 315.6189537 -101.00943628 313.75777137 -102.66796875 310.94921875 C-104.99459442 308.04395043 -107.39675817 305.21305386 -109.8046875 302.375 C-111.66796875 299.94921875 -111.66796875 299.94921875 -111.66796875 297.94921875 C-112.30734375 297.68109375 -112.94671875 297.41296875 -113.60546875 297.13671875 C-115.66796875 295.94921875 -115.66796875 295.94921875 -116.66796875 292.94921875 C-117.32796875 292.28921875 -117.98796875 291.62921875 -118.66796875 290.94921875 C-120.66796875 288.94921875 -120.66796875 288.94921875 -121.66796875 285.94921875 C-122.30734375 285.30984375 -122.94671875 284.67046875 -123.60546875 284.01171875 C-125.58564998 282.03153752 -126.47038826 280.42992119 -127.66796875 277.94921875 C-128.32796875 277.61921875 -128.98796875 277.28921875 -129.66796875 276.94921875 C-131.41636391 274.29165811 -132.65924357 271.9753943 -133.66796875 268.94921875 C-134.32796875 268.61921875 -134.98796875 268.28921875 -135.66796875 267.94921875 C-135.33796875 267.28921875 -135.00796875 266.62921875 -134.66796875 265.94921875 C-135.24675781 265.74683594 -135.82554687 265.54445313 -136.421875 265.3359375 C-139.57661985 263.38822546 -140.75186575 260.95138411 -142.60546875 257.76171875 C-145.79010848 252.35686473 -145.79010848 252.35686473 -149.35546875 247.19921875 C-151.58201415 244.07001981 -153.38791624 240.92251671 -155.20703125 237.55078125 C-157.61583972 233.26129879 -160.27183203 229.12321723 -162.8984375 224.96484375 C-164.45000172 222.32067692 -165.57025579 219.79839372 -166.66796875 216.94921875 C-167.28671875 216.04171875 -167.90546875 215.13421875 -168.54296875 214.19921875 C-171.10622369 210.27894649 -172.87837068 206.26490332 -174.66796875 201.94921875 C-175.23257813 200.59763672 -175.23257813 200.59763672 -175.80859375 199.21875 C-178.66796875 192.24147227 -178.66796875 192.24147227 -178.66796875 189.94921875 C-179.32796875 189.94921875 -179.98796875 189.94921875 -180.66796875 189.94921875 C-181.6197721 186.85585786 -182.57103714 183.76234669 -183.51953125 180.66796875 C-184.25398107 178.28975028 -184.99787213 175.91441389 -185.75390625 173.54296875 C-192.44200652 152.42265211 -193.87474496 131.86913638 -190.93237305 109.9777832 C-190.75114665 108.5873768 -190.58404196 107.19507782 -190.42895508 105.80151367 C-190.03596776 102.31067157 -189.60582907 99.12914852 -188.23046875 95.88671875 C-187.22506437 93.39506441 -186.41089235 91.04945133 -185.66796875 88.44921875 C-182.00549487 75.63056017 -176.22928598 63.87908489 -168.66796875 52.94921875 C-168.06210938 52.03914063 -167.45625 51.1290625 -166.83203125 50.19140625 C-166.22101563 49.28648438 -165.61 48.3815625 -164.98046875 47.44921875 C-164.13935547 46.19625 -164.13935547 46.19625 -163.28125 44.91796875 C-161.66796875 42.94921875 -161.66796875 42.94921875 -158.66796875 41.94921875 C-157.44926946 39.44474359 -157.44926946 39.44474359 -156.66796875 36.94921875 C-156.00796875 36.94921875 -155.34796875 36.94921875 -154.66796875 36.94921875 C-154.46171875 36.39234375 -154.25546875 35.83546875 -154.04296875 35.26171875 C-152.53232863 32.72109674 -150.729387 31.18414378 -148.3984375 29.390625 C-146.51115385 27.86785481 -146.51115385 27.86785481 -144.375 25.609375 C-141.4628158 22.74761823 -138.41475034 20.28755421 -135.16796875 17.82421875 C-134.61238281 17.39496094 -134.05679688 16.96570313 -133.484375 16.5234375 C-124.88731971 9.94921875 -124.88731971 9.94921875 -120.66796875 9.94921875 C-120.66796875 9.28921875 -120.66796875 8.62921875 -120.66796875 7.94921875 C-115.40710038 5.22521181 -110.32168723 2.75359699 -104.66796875 0.94921875 C-103.28931968 0.31121214 -101.91470364 -0.33554157 -100.54296875 -0.98828125 C-93.97089207 -3.9674739 -86.9023437 -6.05078125 -79.66796875 -6.05078125 C-79.66796875 -6.71078125 -79.66796875 -7.37078125 -79.66796875 -8.05078125 C-77.90453125 -8.01984375 -77.90453125 -8.01984375 -76.10546875 -7.98828125 C-73.54719439 -7.94339924 -71.26734782 -8.11799595 -68.734375 -8.54296875 C-45.87342568 -11.97930205 -21.21682679 -8.90191904 0 0 Z M-69.41796875 41.19921875 C-71.04412109 41.50666016 -71.04412109 41.50666016 -72.703125 41.8203125 C-78.80622255 43.04987428 -83.44484924 44.56955319 -88.66796875 47.94921875 C-90.66796875 48.61588542 -92.66796875 49.28255208 -94.66796875 49.94921875 C-97.05844737 51.19970022 -99.34877648 52.56662336 -101.66796875 53.94921875 C-102.32796875 54.27921875 -102.98796875 54.60921875 -103.66796875 54.94921875 C-103.66796875 55.60921875 -103.66796875 56.26921875 -103.66796875 56.94921875 C-104.43109375 57.21734375 -105.19421875 57.48546875 -105.98046875 57.76171875 C-108.66760381 58.9490575 -109.75506453 59.79720151 -111.66796875 61.94921875 C-112.55484375 62.79484375 -113.44171875 63.64046875 -114.35546875 64.51171875 C-116.89738889 66.63105331 -116.89738889 66.63105331 -116.66796875 68.94921875 C-117.65796875 68.61921875 -118.64796875 68.28921875 -119.66796875 67.94921875 C-119.89484375 68.67109375 -120.12171875 69.39296875 -120.35546875 70.13671875 C-121.6422814 72.89417443 -122.99042177 74.26307677 -125.171875 76.30859375 C-130.28820525 81.91919089 -133.9395447 88.91275672 -136.66796875 95.94921875 C-136.99152344 96.55121094 -137.31507813 97.15320313 -137.6484375 97.7734375 C-138.88337014 100.40890678 -139.50483879 102.99150053 -140.16796875 105.82421875 C-140.93938068 109.03843514 -141.72935525 112.12996788 -142.79296875 115.26171875 C-147.32211196 129.1726586 -144.60795203 143.37340681 -140.66796875 156.94921875 C-140.14655673 159.03240733 -139.62565102 161.11572276 -139.10546875 163.19921875 C-138.1980216 166.82900734 -136.92903254 168.99515359 -134.66796875 171.94921875 C-133.83640795 174.02427094 -133.17664602 176.10887919 -132.51171875 178.2421875 C-132.23328125 178.80550781 -131.95484375 179.36882812 -131.66796875 179.94921875 C-130.67796875 180.27921875 -129.68796875 180.60921875 -128.66796875 180.94921875 C-128.54421875 181.71234375 -128.42046875 182.47546875 -128.29296875 183.26171875 C-127.78694083 186.15189011 -127.78694083 186.15189011 -125.66796875 188.94921875 C-125.00796875 188.94921875 -124.34796875 188.94921875 -123.66796875 188.94921875 C-123.37921875 189.54734375 -123.09046875 190.14546875 -122.79296875 190.76171875 C-121.62054849 193.14249667 -121.62054849 193.14249667 -119.66796875 195.94921875 C-119.00796875 195.94921875 -118.34796875 195.94921875 -117.66796875 195.94921875 C-117.44109375 196.52671875 -117.21421875 197.10421875 -116.98046875 197.69921875 C-115.31948653 200.54661684 -113.35272314 202.06989068 -110.66796875 203.94921875 C-110.00796875 203.94921875 -109.34796875 203.94921875 -108.66796875 203.94921875 C-108.66796875 204.60921875 -108.66796875 205.26921875 -108.66796875 205.94921875 C-108.00796875 205.94921875 -107.34796875 205.94921875 -106.66796875 205.94921875 C-106.66796875 206.60921875 -106.66796875 207.26921875 -106.66796875 207.94921875 C-103.76247993 209.9909136 -102.26654829 210.94921875 -98.66796875 210.94921875 C-98.66796875 211.60921875 -98.66796875 212.26921875 -98.66796875 212.94921875 C-94.93252041 215.55271305 -90.8536649 217.19883672 -86.66796875 218.94921875 C-86.01828125 219.28953125 -85.36859375 219.62984375 -84.69921875 219.98046875 C-82.6759613 220.94540692 -80.92185646 221.44507631 -78.73046875 221.88671875 C-76.08057896 222.42269969 -73.49523332 222.99860648 -70.89453125 223.7421875 C-56.91438301 227.56965739 -42.46774263 227.21062079 -28.66796875 222.94921875 C-26.73059704 222.55275796 -24.79309313 222.1569428 -22.85546875 221.76171875 C-7.21968589 217.83230735 11.11990409 206.21468187 20.33203125 192.94921875 C20.33203125 192.28921875 20.33203125 191.62921875 20.33203125 190.94921875 C20.99203125 190.94921875 21.65203125 190.94921875 22.33203125 190.94921875 C23.62336964 189.18962473 23.62336964 189.18962473 24.83203125 187.01171875 C27.12111314 183.05467781 27.12111314 183.05467781 29.33203125 181.94921875 C30.06274458 180.33080291 30.71981505 178.67857301 31.33203125 177.01171875 C33.11790824 172.16334176 33.11790824 172.16334176 35.33203125 169.94921875 C35.80948056 168.07352501 36.27739473 166.19489028 36.69702148 164.30541992 C37.36446469 161.8288746 38.3345142 159.65845666 39.3671875 157.3125 C42.05819417 149.98011841 41.96945114 142.74122226 41.90844727 135.02539062 C41.89458988 132.58454527 41.92874043 130.14755448 41.96679688 127.70703125 C42.0143248 117.59480722 40.5796403 110.21672941 36.33203125 100.94921875 C36.02265625 99.75296875 35.71328125 98.55671875 35.39453125 97.32421875 C32.44517562 87.95567735 26.67810058 80.29912086 20.33203125 72.94921875 C19.56117188 72.05589844 18.7903125 71.16257813 17.99609375 70.2421875 C14.340345 66.09455229 10.82567772 62.21326047 6.33203125 58.94921875 C5.67203125 58.94921875 5.01203125 58.94921875 4.33203125 58.94921875 C4.33203125 58.28921875 4.33203125 57.62921875 4.33203125 56.94921875 C1.06260318 54.67978059 -2.44233909 52.82560284 -5.93261719 50.91796875 C-7.55786367 50.01068428 -9.1497329 49.04432461 -10.73828125 48.07421875 C-28.2653102 38.08338161 -50.05756046 37.20569665 -69.41796875 41.19921875 Z " fill="#FC0202" transform="translate(382.66796875,9.05078125)"/>
<path d="M0 0 C2.39112209 3.58668313 2.23381027 5.16396569 2.1953125 9.41796875 C2.18886719 10.67158203 2.18242187 11.92519531 2.17578125 13.21679688 C2.15902344 14.52712891 2.14226562 15.83746094 2.125 17.1875 C2.11496639 18.52277987 2.1058412 19.85806689 2.09765625 21.19335938 C2.07405292 24.46242015 2.04112594 27.73112028 2 31 C2.66 31 3.32 31 4 31 C4.33 37.93 4.66 44.86 5 52 C-2.39531671 37.20936659 -2.16959353 16.00075225 0 0 Z " fill="#DC4243" transform="translate(191,125)"/>
<path d="M0 0 C0.99 0.33 1.98 0.66 3 1 C3 2.32 3 3.64 3 5 C3.66 5 4.32 5 5 5 C5.99 9.29 6.98 13.58 8 18 C8.99 18 9.98 18 11 18 C11 18.99 11 19.98 11 21 C12.98 21.66 14.96 22.32 17 23 C16.34 24.98 15.68 26.96 15 29 C15.66 29 16.32 29 17 29 C17.67154933 30.28913487 18.33708859 31.58140204 19 32.875 C19.37125 33.59429687 19.7425 34.31359375 20.125 35.0546875 C21 37 21 37 21 39 C21.66 39.33 22.32 39.66 23 40 C22.34 40.99 21.68 41.98 21 43 C19.53704003 40.60688647 18.0795478 38.21071914 16.625 35.8125 C16.2125 35.13896484 15.8 34.46542969 15.375 33.77148438 C13.24460843 30.24946606 11.46394368 26.86011563 10 23 C9.38125 22.0925 8.7625 21.185 8.125 20.25 C5.56685607 16.33754458 3.79683845 12.30128142 2 8 C1.5875 7.05125 1.175 6.1025 0.75 5.125 C0 3 0 3 0 0 Z " fill="#E83635" transform="translate(206,203)"/>
<path d="M0 0 C1.2470874 0.00080566 2.4941748 0.00161133 3.77905273 0.00244141 C26.44832224 0.15304816 26.44832224 0.15304816 32.5 4.1875 C31.4996875 4.1153125 30.499375 4.043125 29.46875 3.96875 C18.6055926 3.25902035 7.75775258 3.076189 -3.125 3.0625 C-3.81827393 3.06000244 -4.51154785 3.05750488 -5.22583008 3.05493164 C-12.73793482 3.03273013 -20.05193427 3.19702424 -27.5 4.1875 C-29.1663197 4.22150652 -30.83419981 4.24123549 -32.5 4.1875 C-31.18 3.8575 -29.86 3.5275 -28.5 3.1875 C-28.5 2.5275 -28.5 1.8675 -28.5 1.1875 C-27.324375 1.208125 -26.14875 1.22875 -24.9375 1.25 C-22.37922564 1.29488201 -20.09937907 1.1202853 -17.56640625 0.6953125 C-11.75444433 -0.17830994 -5.86300637 -0.00388201 0 0 Z " fill="#E27D7D" transform="translate(331.5,-0.1875)"/>
<path d="M0 0 C0.66 0.33 1.32 0.66 2 1 C0.68 1.33 -0.64 1.66 -2 2 C-2.33 3.65 -2.66 5.3 -3 7 C-3.9075 7.2475 -4.815 7.495 -5.75 7.75 C-9.05711322 8.76943181 -9.05711322 8.76943181 -11.125 11.125 C-11.74375 11.74375 -12.3625 12.3625 -13 13 C-14.32 13 -15.64 13 -17 13 C-17 13.66 -17 14.32 -17 15 C-18.32 15.33 -19.64 15.66 -21 16 C-21 17.65 -21 19.3 -21 21 C-24.65529044 22.0544107 -28.30544219 23.09270815 -32 24 C-27.97992746 18.89496736 -23.74044746 14.98387073 -18.4375 11.25 C-17.79103516 10.78207031 -17.14457031 10.31414063 -16.47851562 9.83203125 C-6.9659282 3 -6.9659282 3 -3 3 C-3 2.34 -3 1.68 -3 1 C-2.01 0.67 -1.02 0.34 0 0 Z " fill="#E7696A" transform="translate(265,16)"/>
<path d="M0 0 C0.33 0 0.66 0 1 0 C2.3873964 5.91172665 2.22318679 11.80870489 2.24023438 17.8527832 C2.2498259 19.90033422 2.28083162 21.94682959 2.3125 23.99414062 C2.38379137 32.98827059 1.18162392 41.2571971 -1 50 C-1.35764603 51.74929224 -1.71227211 53.49920748 -2.0625 55.25 C-3 59 -3 59 -5 61 C-4.85054932 60.13487793 -4.70109863 59.26975586 -4.54711914 58.37841797 C-4.03845192 55.23743759 -3.620666 52.10474802 -3.24609375 48.9453125 C-3.11396484 47.83671875 -2.98183594 46.728125 -2.84570312 45.5859375 C-2.71099609 44.44382813 -2.57628906 43.30171875 -2.4375 42.125 C-2.29892578 40.9596875 -2.16035156 39.794375 -2.01757812 38.59375 C-1.67713273 35.72931288 -1.33798077 32.86472879 -1 30 C-0.67 30 -0.34 30 0 30 C0 20.1 0 10.2 0 0 Z " fill="#EF9EA0" transform="translate(471,120)"/>
<path d="M0 0 C2.4375 0.625 2.4375 0.625 5 2 C5.8125 5.125 5.8125 5.125 6 8 C6.99 8 7.98 8 9 8 C9.33 9.32 9.66 10.64 10 12 C11.98 11.67 13.96 11.34 16 11 C16.93423645 14.01031744 17.04449911 14.86650268 16 18 C16 18.99 16 19.98 16 21 C11.2367688 16.48746518 11.2367688 16.48746518 9.9375 13.8125 C8.72171843 11.46198896 7.33020244 11.12751731 5 10 C4.67 9.01 4.34 8.02 4 7 C3.319375 6.34 2.63875 5.68 1.9375 5 C0 3 0 3 0 0 Z " fill="#E61114" transform="translate(262,295)"/>
<path d="M0 0 C0.66 0.33 1.32 0.66 2 1 C1.67 2.32 1.34 3.64 1 5 C0.34 5 -0.32 5 -1 5 C-1 5.99 -1 6.98 -1 8 C-1.66 8 -2.32 8 -3 8 C-3.66 9.32 -4.32 10.64 -5 12 C-5.66 12 -6.32 12 -7 12 C-7 12.99 -7 13.98 -7 15 C-7.66 15 -8.32 15 -9 15 C-9 15.66 -9 16.32 -9 17 C-10.66215268 18.33895632 -12.32963607 19.67130142 -14 21 C-14.66 21.9075 -15.32 22.815 -16 23.75 C-18 26 -18 26 -20.75 26.3125 C-21.4925 26.209375 -22.235 26.10625 -23 26 C-20.41267354 23.3365757 -17.91885 20.93575625 -15 18.625 C-12.53919024 16.47179146 -11.05226981 14.8219944 -9.25 12.1875 C-8.5075 11.135625 -7.765 10.08375 -7 9 C-6.34 9 -5.68 9 -5 9 C-4.731875 8.443125 -4.46375 7.88625 -4.1875 7.3125 C-2.89877353 4.80287477 -1.47073522 2.40665764 0 0 Z " fill="#E87270" transform="translate(410,191)"/>
<path d="M0 0 C3.37422025 4.49896034 3.48736497 7.1599151 3.4375 12.5 C3.45748047 13.25925781 3.47746094 14.01851562 3.49804688 14.80078125 C3.49327339 20.25210035 3.10952787 20.89047213 -1 25 C-0.67 16.75 -0.34 8.5 0 0 Z " fill="#E15F5D" transform="translate(424,130)"/>
<path d="M0 0 C0.66 0.33 1.32 0.66 2 1 C2 2.32 2 3.64 2 5 C1.34 5 0.68 5 0 5 C0.62759865 7.92879371 1.58622659 10.36095629 3 13 C1 15 1 15 -2.0625 15.5 C-3.031875 15.665 -4.00125 15.83 -5 16 C-5.33 16.66 -5.66 17.32 -6 18 C-5.0149922 11.69595008 -2.38841686 5.87917997 0 0 Z " fill="#F30403" transform="translate(203,81)"/>
<path d="M0 0 C2.475 0.99 2.475 0.99 5 2 C5.66 1.34 6.32 0.68 7 0 C7.99 0.66 8.98 1.32 10 2 C10.66 2 11.32 2 12 2 C11.690625 2.598125 11.38125 3.19625 11.0625 3.8125 C9.89790296 6.08956772 9.89790296 6.08956772 9 9 C9.99 9.33 10.98 9.66 12 10 C13.1875 13.5625 13.1875 13.5625 14 17 C10.86010754 13.96788417 8.07012117 10.75707423 5.3125 7.375 C4.13107422 5.93253906 4.13107422 5.93253906 2.92578125 4.4609375 C1 2 1 2 0 0 Z " fill="#EC2525" transform="translate(396,74)"/>
<path d="M0 0 C2.97 0.495 2.97 0.495 6 1 C6 1.66 6 2.32 6 3 C6.825 3.2475 7.65 3.495 8.5 3.75 C15.15660054 6.12735734 20.27280164 8.68190184 25 14 C24.01 14.33 23.02 14.66 22 15 C22 14.34 22 13.68 22 13 C20.68 13 19.36 13 18 13 C16.375 11.5625 16.375 11.5625 15 10 C14.34 9.67 13.68 9.34 13 9 C13 8.34 13 7.68 13 7 C12.01 7 11.02 7 10 7 C10 6.34 10 5.68 10 5 C6.7 4.34 3.4 3.68 0 3 C0 2.01 0 1.02 0 0 Z " fill="#E26F6E" transform="translate(388,12)"/>
<path d="M0 0 C1.65 0 3.3 0 5 0 C2.87047659 3.30443288 0.84312539 6.28610758 -2 9 C-2.99 10.485 -2.99 10.485 -4 12 C-4.66 12 -5.32 12 -6 12 C-6.66 13.32 -7.32 14.64 -8 16 C-9 13 -9 13 -8.0625 10.8125 C-7.5365625 9.9153125 -7.5365625 9.9153125 -7 9 C-6.01 9 -5.02 9 -4 9 C-4 8.34 -4 7.68 -4 7 C-4.66 6.67 -5.32 6.34 -6 6 C-5.34 5.01 -4.68 4.02 -4 3 C-2.68 3 -1.36 3 0 3 C0 2.01 0 1.02 0 0 Z " fill="#EA4644" transform="translate(383,314)"/>
<path d="M0 0 C1.51400391 0.01740234 1.51400391 0.01740234 3.05859375 0.03515625 C4.07050781 0.04417969 5.08242188 0.05320313 6.125 0.0625 C7.29869141 0.07990234 7.29869141 0.07990234 8.49609375 0.09765625 C8.49609375 0.42765625 8.49609375 0.75765625 8.49609375 1.09765625 C6.66884766 1.46117187 6.66884766 1.46117187 4.8046875 1.83203125 C3.18085735 2.1699381 1.55716665 2.50851554 -0.06640625 2.84765625 C-0.86626953 3.00492188 -1.66613281 3.1621875 -2.49023438 3.32421875 C-7.87869347 4.4678917 -11.79668069 6.26371433 -16.50390625 9.09765625 C-18.94140625 8.84765625 -18.94140625 8.84765625 -20.50390625 8.09765625 C-19.51390625 7.76765625 -18.52390625 7.43765625 -17.50390625 7.09765625 C-17.50390625 6.10765625 -17.50390625 5.11765625 -17.50390625 4.09765625 C-15.52390625 4.09765625 -13.54390625 4.09765625 -11.50390625 4.09765625 C-11.50390625 3.43765625 -11.50390625 2.77765625 -11.50390625 2.09765625 C-9.453125 1.86979167 -7.40234375 1.64192708 -5.3515625 1.4140625 C-2.80701946 0.97831623 -2.79909069 0.1091689 0 0 Z " fill="#E98A89" transform="translate(310.50390625,48.90234375)"/>
<path d="M0 0 C0.99 0.33 1.98 0.66 3 1 C2.39769761 2.37581764 1.79304888 3.75060816 1.1875 5.125 C0.82140625 5.95644531 0.4553125 6.78789063 0.078125 7.64453125 C-1 10 -1 10 -2.5625 12.8125 C-4.75686559 17.67826718 -5.81571994 22.80932569 -7 28 C-7.33 28 -7.66 28 -8 28 C-7.33333333 22.66666667 -6.66666667 17.33333333 -6 12 C-5.34 12 -4.68 12 -4 12 C-4 10.35 -4 8.7 -4 7 C-3.34 7 -2.68 7 -2 7 C-2 5.68 -2 4.36 -2 3 C-1.34 3 -0.68 3 0 3 C0 2.01 0 1.02 0 0 Z " fill="#EA7C7A" transform="translate(249,93)"/>
<path d="M0 0 C2.31 0 4.62 0 7 0 C4.16569547 3.2542015 2.31392226 4.5206753 -2 5 C-2 5.66 -2 6.32 -2 7 C-2.66 7 -3.32 7 -4 7 C-4.33 7.66 -4.66 8.32 -5 9 C-9.58823529 13 -9.58823529 13 -12 13 C-12 11.68 -12 10.36 -12 9 C-10.35 8.67 -8.7 8.34 -7 8 C-7 7.34 -7 6.68 -7 6 C-6.030625 5.566875 -5.06125 5.13375 -4.0625 4.6875 C-0.72268235 3.2985139 -0.72268235 3.2985139 0 0 Z " fill="#E56869" transform="translate(281,59)"/>
<path d="M0 0 C0.66 0 1.32 0 2 0 C1.7834375 1.02480469 1.7834375 1.02480469 1.5625 2.0703125 C-0.45453399 13.02392765 -0.19426632 23.90141572 0 35 C-0.66 35 -1.32 35 -2 35 C-2.04961351 30.81910808 -2.08582016 26.63837434 -2.10986328 22.45727539 C-2.11989146 21.03634657 -2.13351741 19.61543822 -2.15087891 18.19458008 C-2.17526821 16.14659556 -2.1865149 14.09888502 -2.1953125 12.05078125 C-2.21102295 10.20480347 -2.21102295 10.20480347 -2.22705078 8.3215332 C-2.0066407 5.09714697 -1.38799202 2.89365119 0 0 Z " fill="#D62827" transform="translate(239,121)"/>
<path d="M0 0 C1.32 0 2.64 0 4 0 C4.33 1.98 4.66 3.96 5 6 C6.65 6.33 8.3 6.66 10 7 C10 8.32 10 9.64 10 11 C10.66 11 11.32 11 12 11 C12.33 12.32 12.66 13.64 13 15 C9.87624531 13.64389915 8.0689031 12.20543984 5.9375 9.5625 C4.45405634 7.74065805 3.05421587 6.04943581 1.31640625 4.46484375 C0 3 0 3 0 0 Z " fill="#E84F53" transform="translate(299,340)"/>
<path d="M0 0 C3.5549955 1.4219982 4.36668882 2.63730051 6 6 C7.6454378 7.68762851 9.31288577 9.3540349 11 11 C12.875 13.125 12.875 13.125 14 15 C13.67 15.99 13.34 16.98 13 18 C12.34 17.67 11.68 17.34 11 17 C11 16.34 11 15.68 11 15 C10.01 14.67 9.02 14.34 8 14 C7.67 12.35 7.34 10.7 7 9 C6.38125 8.87625 5.7625 8.7525 5.125 8.625 C3 8 3 8 1 6 C0.60235737 4.01178687 0.26224651 2.01055661 0 0 Z " fill="#EE8280" transform="translate(434,44)"/>
<path d="M0 0 C4.24633547 6.3695032 4.40727748 14.52857671 5 22 C4.34 22 3.68 22 3 22 C0.74830377 17.43253488 0.57576021 13.17722773 0.375 8.1875 C0.33632813 7.39923828 0.29765625 6.61097656 0.2578125 5.79882812 C0.16411156 3.8662462 0.08099221 1.93315624 0 0 Z " fill="#E46063" transform="translate(466,97)"/>
<path d="M0 0 C1.65 0 3.3 0 5 0 C3.625 2 3.625 2 2 4 C1.34 4 0.68 4 0 4 C-0.103125 4.639375 -0.20625 5.27875 -0.3125 5.9375 C-0.539375 6.618125 -0.76625 7.29875 -1 8 C-1.99 8.33 -2.98 8.66 -4 9 C-4.73323796 11.01508358 -4.73323796 11.01508358 -5 13 C-5.99 13 -6.98 13 -8 13 C-7.01 10.36 -6.02 7.72 -5 5 C-3.68 5 -2.36 5 -1 5 C-0.67 3.35 -0.34 1.7 0 0 Z " fill="#EC5C5B" transform="translate(369,331)"/>
<path d="M0 0 C1.77152242 5.59698388 0.33893826 11.24231922 -2.1796875 16.4296875 C-3.36697515 18.40381666 -4.48598981 20.26277035 -6 22 C-6.66 22 -7.32 22 -8 22 C-7.61346283 18.71443402 -6.96546091 16.94986261 -5.0625 14.1875 C-2.59554178 10.37492821 -1.94226416 7.42139337 -1 3 C-0.67 2.01 -0.34 1.02 0 0 Z " fill="#ED787E" transform="translate(420,168)"/>
<path d="M0 0 C0.66 0.66 1.32 1.32 2 2 C0.35 2.33 -1.3 2.66 -3 3 C-3 3.66 -3 4.32 -3 5 C-3.99 5 -4.98 5 -6 5 C-6 5.66 -6 6.32 -6 7 C-14.42857143 10.42857143 -14.42857143 10.42857143 -19 10 C-16.62229367 7.24686635 -14.40095517 6.21462685 -11 5 C-7.21074542 3.54259439 -3.61475577 1.84940993 0 0 Z " fill="#E98082" transform="translate(286,6)"/>
<path d="M0 0 C1.98 0.99 1.98 0.99 4 2 C4 3.32 4 4.64 4 6 C4.99 6.33 5.98 6.66 7 7 C8.26237731 9.52475462 8.09856404 11.31200466 8.0625 14.125 C8.05347656 15.03507812 8.04445313 15.94515625 8.03515625 16.8828125 C8.02355469 17.58148438 8.01195312 18.28015625 8 19 C6.23525461 16.35288191 5.46001596 14.59643702 4.5625 11.625 C3.43036701 8.07264394 2.00872233 5.15656365 0 2 C0 1.34 0 0.68 0 0 Z " fill="#E87373" transform="translate(413,96)"/>
<path d="M0 0 C0.99 0.33 1.98 0.66 3 1 C3 2.32 3 3.64 3 5 C3.66 5 4.32 5 5 5 C5.64715133 7.0829243 6.29267166 9.16635539 6.9375 11.25 C7.47697266 12.99023438 7.47697266 12.99023438 8.02734375 14.765625 C8.75066637 17.17089058 9.42542411 19.55654044 10 22 C6.16031221 17.74891709 4.14795015 13.22731232 2 8 C1.5875 7.05125 1.175 6.1025 0.75 5.125 C0 3 0 3 0 0 Z " fill="#EB8180" transform="translate(206,203)"/>
<path d="M0 0 C2.88775267 5.53695185 5.61510469 11.64391825 5 18 C4.01 18 3.02 18 2 18 C1.86722656 17.08476562 1.73445312 16.16953125 1.59765625 15.2265625 C1.42105469 14.03804687 1.24445313 12.84953125 1.0625 11.625 C0.88847656 10.44164062 0.71445313 9.25828125 0.53515625 8.0390625 C0.16537214 5.09297619 0.16537214 5.09297619 -1 3 C-1.66 2.67 -2.32 2.34 -3 2 C-2.01 1.34 -1.02 0.68 0 0 Z " fill="#E55D5E" transform="translate(239,156)"/>
<path d="M0 0 C2.5 1.3125 2.5 1.3125 5 3 C5 3.99 5 4.98 5 6 C5.66 6 6.32 6 7 6 C7 6.99 7 7.98 7 9 C7.66 9 8.32 9 9 9 C9.33 11.31 9.66 13.62 10 16 C0 4.07692308 0 4.07692308 0 0 Z " fill="#E35E5E" transform="translate(228,246)"/>
<path d="M0 0 C1.18185615 3.54556846 0.80951792 4.01795562 -0.75 7.25 C-1.12125 8.03761719 -1.4925 8.82523438 -1.875 9.63671875 C-2.24625 10.41660156 -2.6175 11.19648438 -3 12 C-3.59060578 13.35101072 -4.17485835 14.7048339 -4.75 16.0625 C-5.36875 17.5165625 -5.36875 17.5165625 -6 19 C-6.33 19 -6.66 19 -7 19 C-7 16.36 -7 13.72 -7 11 C-6.34 11 -5.68 11 -5 11 C-5 9.68 -5 8.36 -5 7 C-4.34 7 -3.68 7 -3 7 C-2.690625 6.21625 -2.38125 5.4325 -2.0625 4.625 C-1 2 -1 2 0 0 Z " fill="#EB817E" transform="translate(462,191)"/>
<path d="M0 0 C0.763125 0.309375 1.52625 0.61875 2.3125 0.9375 C4.18789677 1.67893593 6.08684652 2.36228217 8 3 C8 2.34 8 1.68 8 1 C9.65 1 11.3 1 13 1 C11.35 2.98 9.7 4.96 8 7 C4.59679258 5.98823563 3.24274669 5.35156418 1.1875 2.375 C0.795625 1.59125 0.40375 0.8075 0 0 Z " fill="#E96A69" transform="translate(325,370)"/>
<path d="M0 0 C1.32 0 2.64 0 4 0 C4.33 1.32 4.66 2.64 5 4 C5.99 3.67 6.98 3.34 8 3 C8.33 5.31 8.66 7.62 9 10 C7.1875 9.8125 7.1875 9.8125 5 9 C3.375 6.6875 3.375 6.6875 2 4 C1.608125 3.236875 1.21625 2.47375 0.8125 1.6875 C0.544375 1.130625 0.27625 0.57375 0 0 Z " fill="#E64C4D" transform="translate(278,316)"/>
<path d="M0 0 C0.33 0.99 0.66 1.98 1 3 C-0.3125 5.1875 -0.3125 5.1875 -2 7 C-2.66 7 -3.32 7 -4 7 C-4.66 8.98 -5.32 10.96 -6 13 C-6.66 13 -7.32 13 -8 13 C-8.33 13.99 -8.66 14.98 -9 16 C-9.33 15.01 -9.66 14.02 -10 13 C-9.01 12.34 -8.02 11.68 -7 11 C-6.26393501 7.43230448 -6.26393501 7.43230448 -6 4 C-5.01 4 -4.02 4 -3 4 C-3 3.34 -3 2.68 -3 2 C-2.01 2 -1.02 2 0 2 C0 1.34 0 0.68 0 0 Z " fill="#E76A64" transform="translate(424,262)"/>
<path d="M0 0 C0.66 0 1.32 0 2 0 C2.40236151 5.36482009 0.9945616 9.15311198 -1 14 C-1.33 14.99 -1.66 15.98 -2 17 C-2.66 17 -3.32 17 -4 17 C-3.52294177 14.72872279 -3.04328294 12.45799168 -2.5625 10.1875 C-2.29566406 8.92292969 -2.02882813 7.65835938 -1.75390625 6.35546875 C-1 3 -1 3 0 0 Z " fill="#DC2727" transform="translate(423,160)"/>
<path d="M0 0 C1 2 1 2 0.44140625 4.1640625 C0.15136719 4.97617188 -0.13867188 5.78828125 -0.4375 6.625 C-0.72496094 7.44226563 -1.01242188 8.25953125 -1.30859375 9.1015625 C-1.65083984 10.04128906 -1.65083984 10.04128906 -2 11 C-2.66 11 -3.32 11 -4 11 C-4 11.99 -4 12.98 -4 14 C-4.66 14 -5.32 14 -6 14 C-6.33 14.99 -6.66 15.98 -7 17 C-7.66 16.67 -8.32 16.34 -9 16 C-6.3131884 10.42735372 -3.36721643 5.18882532 0 0 Z " fill="#E67775" transform="translate(213,63)"/>
<path d="M0 0 C1.98 0.99 1.98 0.99 4 2 C4 2.66 4 3.32 4 4 C4.969375 4.2475 5.93875 4.495 6.9375 4.75 C7.948125 5.1625 8.95875 5.575 10 6 C10.875 8.125 10.875 8.125 11 10 C7.75 10.0625 7.75 10.0625 4 9 C2.14940281 6.17343946 1.04179786 3.2030431 0 0 Z " fill="#E95D5C" transform="translate(415,27)"/>
<path d="M0 0 C1.95216435 1.95216435 2.84826645 3.53199953 4 6 C4.66 5.34 5.32 4.68 6 4 C7.10844919 7.32534757 6.84454356 9.62182575 6 13 C5.34 12.67 4.68 12.34 4 12 C4 11.34 4 10.68 4 10 C3.34 9.67 2.68 9.34 2 9 C2.33 8.34 2.66 7.68 3 7 C1.68 6.34 0.36 5.68 -1 5 C-0.67 3.35 -0.34 1.7 0 0 Z " fill="#EA6060" transform="translate(245,268)"/>
<path d="M0 0 C9 2 9 2 18 4 C18 4.33 18 4.66 18 5 C13.38 5 8.76 5 4 5 C3.67 4.01 3.34 3.02 3 2 C2.01 1.67 1.02 1.34 0 1 C0 0.67 0 0.34 0 0 Z " fill="#E86D6D" transform="translate(304,230)"/>
<path d="M0 0 C0 0.66 0 1.32 0 2 C-5.69398894 4.09570426 -10.95198929 5.45018084 -17 6 C-17 5.34 -17 4.68 -17 4 C-5.67924528 0 -5.67924528 0 0 0 Z " fill="#E36866" transform="translate(365,229)"/>
<path d="M0 0 C0 0.66 0 1.32 0 2 C-1.66215268 3.33895632 -3.32963607 4.67130142 -5 6 C-5.66 6.9075 -6.32 7.815 -7 8.75 C-9 11 -9 11 -11.75 11.3125 C-12.86375 11.1578125 -12.86375 11.1578125 -14 11 C-3.32352941 0 -3.32352941 0 0 0 Z " fill="#DE5755" transform="translate(401,206)"/>
<path d="M0 0 C1.32 0.33 2.64 0.66 4 1 C4 1.66 4 2.32 4 3 C4.99 3.33 5.98 3.66 7 4 C8.25 7.4375 8.25 7.4375 9 11 C8.67 11.66 8.34 12.32 8 13 C7.0234375 11.20963542 6.046875 9.41927083 5.0703125 7.62890625 C4.08589976 5.83381685 4.08589976 5.83381685 2 5 C1.27840576 3.35636866 0.60648579 1.68949614 0 0 Z " fill="#EA6969" transform="translate(251,281)"/>
<path d="M0 0 C0.99 0 1.98 0 3 0 C3.67154933 1.28913487 4.33708859 2.58140204 5 3.875 C5.37125 4.59429687 5.7425 5.31359375 6.125 6.0546875 C7 8 7 8 7 10 C7.66 10.33 8.32 10.66 9 11 C8.01 12.485 8.01 12.485 7 14 C5.82807953 12.04480616 4.6626071 10.0857461 3.5 8.125 C2.8503125 7.03445312 2.200625 5.94390625 1.53125 4.8203125 C0 2 0 2 0 0 Z " fill="#E66C69" transform="translate(220,232)"/>
<path d="M0 0 C0.99 0.33 1.98 0.66 3 1 C3 2.32 3 3.64 3 5 C3.66 5 4.32 5 5 5 C4.979375 6.051875 4.95875 7.10375 4.9375 8.1875 C4.98896802 11.32704904 5.26517187 13.96883396 6 17 C3.40236918 13.92941119 2.30167122 11.25841292 1.3125 7.375 C1.06113281 6.41335937 0.80976563 5.45171875 0.55078125 4.4609375 C0 2 0 2 0 0 Z " fill="#EA7874" transform="translate(196,177)"/>
<path d="M0 0 C1.32 0.33 2.64 0.66 4 1 C3.67 2.32 3.34 3.64 3 5 C3.99 5.66 4.98 6.32 6 7 C0.71862571 6.48474397 -2.57221156 4.74522883 -7 2 C-3.98968256 1.06576355 -3.13349732 0.95550089 0 2 C0 1.34 0 0.68 0 0 Z " fill="#F06263" transform="translate(368,51)"/>
<path d="M0 0 C0.66 0 1.32 0 2 0 C2.33 5.61 2.66 11.22 3 17 C1.35498903 13.70997805 0.5173123 11.45096279 -0.1875 7.9375 C-0.36667969 7.08027344 -0.54585937 6.22304687 -0.73046875 5.33984375 C-1 3 -1 3 0 0 Z " fill="#E77C7D" transform="translate(193,160)"/>
<path d="M0 0 C2.3125 0.5 2.3125 0.5 5 2 C6.34362482 4.56757456 7.14846455 7.23826339 8 10 C8.33 10.66 8.66 11.32 9 12 C7.0625 11.1875 7.0625 11.1875 5 10 C4.67 9.01 4.34 8.02 4 7 C3.319375 6.34 2.63875 5.68 1.9375 5 C0 3 0 3 0 0 Z " fill="#ED8F8C" transform="translate(262,295)"/>
<path d="M0 0 C-1.14206358 1.50287218 -2.28874957 3.00223284 -3.4375 4.5 C-4.39462891 5.75296875 -4.39462891 5.75296875 -5.37109375 7.03125 C-5.90863281 7.6809375 -6.44617188 8.330625 -7 9 C-7.33 9 -7.66 9 -8 9 C-8 7.35 -8 5.7 -8 4 C-7.34 4 -6.68 4 -6 4 C-6 2.68 -6 1.36 -6 0 C-3 -1 -3 -1 0 0 Z " fill="#E34A47" transform="translate(409,287)"/>
<path d="M0 0 C4.13784934 4.70858718 6.76563004 9.82815019 8 16 C5.2775526 14.98194194 4.18557612 14.32876756 2.734375 11.7578125 C2.40953125 10.88898438 2.0846875 10.02015625 1.75 9.125 C1.41484375 8.26132813 1.0796875 7.39765625 0.734375 6.5078125 C0 4 0 4 0 0 Z " fill="#E57976" transform="translate(455,72)"/>
<path d="M0 0 C0.66 0.33 1.32 0.66 2 1 C0.68 1.33 -0.64 1.66 -2 2 C-2.33 3.65 -2.66 5.3 -3 7 C-7.455 7.495 -7.455 7.495 -12 8 C-10.5998884 5.1997768 -8.73427449 4.43223902 -6 3 C-5.01 3 -4.02 3 -3 3 C-3 2.34 -3 1.68 -3 1 C-2.01 0.67 -1.02 0.34 0 0 Z " fill="#EB6E6F" transform="translate(265,16)"/>
<path d="M0 0 C0 0.99 0 1.98 0 3 C-6.27 2.67 -12.54 2.34 -19 2 C-19 1.67 -19 1.34 -19 1 C-16.39590255 0.83218705 -13.7917318 0.66570349 -11.1875 0.5 C-10.08051758 0.42845703 -10.08051758 0.42845703 -8.95117188 0.35546875 C-5.96175412 0.16609387 -2.99625426 0 0 0 Z " fill="#DD4947" transform="translate(345,234)"/>
<path d="M0 0 C0.66 0.33 1.32 0.66 2 1 C1.29022737 2.46787021 0.55627657 3.92406356 -0.1875 5.375 C-0.59355469 6.18710937 -0.99960938 6.99921875 -1.41796875 7.8359375 C-3.33317274 10.4557474 -4.94165804 11.06450717 -8 12 C-7.04532436 10.37284844 -6.08613152 8.74834654 -5.125 7.125 C-4.59132812 6.22007813 -4.05765625 5.31515625 -3.5078125 4.3828125 C-2 2 -2 2 0 0 Z " fill="#E97A79" transform="translate(222,51)"/>
<path d="M0 0 C3.465 1.98 3.465 1.98 7 4 C7 4.66 7 5.32 7 6 C7.66 6 8.32 6 9 6 C9 6.66 9 7.32 9 8 C4.75153925 7.52794881 2.73180712 5.11122478 0 2 C0 1.34 0 0.68 0 0 Z " fill="#E46A69" transform="translate(267,209)"/>
<path d="M0 0 C0.99 0.495 0.99 0.495 2 1 C2 1.66 2 2.32 2 3 C2.66 3 3.32 3 4 3 C5.38232443 4.62626404 6.71937515 6.2925002 8 8 C7.67 8.66 7.34 9.32 7 10 C5.35 9.67 3.7 9.34 2 9 C1.34 6.03 0.68 3.06 0 0 Z " fill="#EC6767" transform="translate(255,195)"/>
<path d="M0 0 C0.66 0 1.32 0 2 0 C1.71926927 2.14729141 1.42511501 4.29283193 1.125 6.4375 C0.88136719 8.22994141 0.88136719 8.22994141 0.6328125 10.05859375 C0.31957031 11.51458984 0.31957031 11.51458984 0 13 C-0.99 13.495 -0.99 13.495 -2 14 C-2.3690205 4.58997722 -2.3690205 4.58997722 0 0 Z " fill="#DE3B39" transform="translate(239,121)"/>
<path d="M0 0 C0.99 0.33 1.98 0.66 3 1 C0.92856799 5.03384128 -0.96615872 6.92856799 -5 9 C-5 7.68 -5 6.36 -5 5 C-4.34 5 -3.68 5 -3 5 C-2.5359375 4.0409375 -2.5359375 4.0409375 -2.0625 3.0625 C-1 1 -1 1 0 0 Z " fill="#E9777B" transform="translate(354,350)"/>
<path d="M0 0 C0.99 0 1.98 0 3 0 C2.34 1.65 1.68 3.3 1 5 C0.34 5 -0.32 5 -1 5 C-1.33 6.65 -1.66 8.3 -2 10 C-2.33 10 -2.66 10 -3 10 C-3 7.69 -3 5.38 -3 3 C-2.01 2.67 -1.02 2.34 0 2 C0 1.34 0 0.68 0 0 Z " fill="#E76563" transform="translate(441,232)"/>
<path d="M0 0 C2 0 2 0 4.4375 2.125 C6.98843957 4.98702976 8.57989531 7.44973828 10 11 C9.67 11.66 9.34 12.32 9 13 C7.87064804 11.58680023 6.74669374 10.16928595 5.625 8.75 C4.99851562 7.96109375 4.37203125 7.1721875 3.7265625 6.359375 C2.21089263 4.28818811 1.05780366 2.32930503 0 0 Z " fill="#EB9893" transform="translate(400,78)"/>
<path d="M0 0 C0.66 0 1.32 0 2 0 C2 0.99 2 1.98 2 3 C-4.4 7.06153846 -4.4 7.06153846 -7.4375 6.75 C-7.953125 6.5025 -8.46875 6.255 -9 6 C-8.01 5.67 -7.02 5.34 -6 5 C-6 4.01 -6 3.02 -6 2 C-4.02 2 -2.04 2 0 2 C0 1.34 0 0.68 0 0 Z " fill="#ED7576" transform="translate(299,51)"/>
<path d="M0 0 C1.32 0 2.64 0 4 0 C4.12375 0.969375 4.2475 1.93875 4.375 2.9375 C4.58125 3.948125 4.7875 4.95875 5 6 C5.66 6.33 6.32 6.66 7 7 C4 7 4 7 1.8125 5.1875 C0 3 0 3 0 0 Z " fill="#E56060" transform="translate(299,340)"/>
<path d="M0 0 C2.31 0 4.62 0 7 0 C4.48169253 3.12270126 3.2738451 3.94523098 -0.75 4.75 C-2.35875 4.87375 -2.35875 4.87375 -4 5 C-3.01 4.34 -2.02 3.68 -1 3 C-0.67 2.01 -0.34 1.02 0 0 Z " fill="#E45656" transform="translate(281,59)"/>
<path d="M0 0 C0.33 0.66 0.66 1.32 1 2 C-0.75 4.0625 -0.75 4.0625 -3 6 C-5.25 5.75 -5.25 5.75 -7 5 C-4.63707344 2.47411298 -3.33537489 1.11179163 0 0 Z " fill="#E23938" transform="translate(255,23)"/>
<path d="M0 0 C1.98 0 3.96 0 6 0 C6.79953138 3.28696233 7.09658936 4.71023192 6 8 C4.9970458 6.85675161 3.99770973 5.71032809 3 4.5625 C2.443125 3.92441406 1.88625 3.28632813 1.3125 2.62890625 C0 1 0 1 0 0 Z " fill="#E94B4B" transform="translate(312,356)"/>
<path d="M0 0 C0 0.99 0 1.98 0 3 C-0.99 3.33 -1.98 3.66 -3 4 C-4.20882096 6.00016466 -4.20882096 6.00016466 -5 8 C-5.66 6.68 -6.32 5.36 -7 4 C-4.61426621 2.10786631 -2.92824652 0.97608217 0 0 Z " fill="#ED8283" transform="translate(262,79)"/>
<path d="M0 0 C0.66 0 1.32 0 2 0 C1.34 1.65 0.68 3.3 0 5 C-0.66 5 -1.32 5 -2 5 C-2.33 5.99 -2.66 6.98 -3 8 C-3.99 8.33 -4.98 8.66 -6 9 C-5.34 7.35 -4.68 5.7 -4 4 C-3.34 4 -2.68 4 -2 4 C-1.34 2.68 -0.68 1.36 0 0 Z " fill="#DF6C66" transform="translate(230,42)"/>
<path d="M0 0 C0.66 0.99 1.32 1.98 2 3 C1.34 3 0.68 3 0 3 C0.33 4.32 0.66 5.64 1 7 C-1.31 7.33 -3.62 7.66 -6 8 C-4.55746343 4.63408134 -2.66735273 2.48952921 0 0 Z " fill="#F10608" transform="translate(228,47)"/>
<path d="M0 0 C1.9375 0.8125 1.9375 0.8125 4 2 C4.33 2.99 4.66 3.98 5 5 C5.99 5.33 6.98 5.66 8 6 C7.34 6.66 6.68 7.32 6 8 C6 7.34 6 6.68 6 6 C4.68 6 3.36 6 2 6 C1.34 4.02 0.68 2.04 0 0 Z " fill="#DF4546" transform="translate(426,37)"/>
<path d="M0 0 C1.31625194 2.63250388 0.74813658 3.80179056 0.0625 6.625 C-0.13214844 7.44226563 -0.32679688 8.25953125 -0.52734375 9.1015625 C-0.68332031 9.72804688 -0.83929688 10.35453125 -1 11 C-1.66 11 -2.32 11 -3 11 C-3.33 11.66 -3.66 12.32 -4 13 C-3.27991594 8.39146203 -1.68704061 4.32762591 0 0 Z " fill="#EE9B9A" transform="translate(201,86)"/>
<path d="M0 0 C2.25 -0.3125 2.25 -0.3125 5 0 C7.3125 2.5 7.3125 2.5 9 5 C8.01 5.33 7.02 5.66 6 6 C6 5.34 6 4.68 6 4 C4.68 4 3.36 4 2 4 C1.34 2.68 0.68 1.36 0 0 Z " fill="#E36865" transform="translate(404,21)"/>
<path d="M0 0 C1.32 0 2.64 0 4 0 C3.67 0.99 3.34 1.98 3 3 C2.34 3 1.68 3 1 3 C0.34 4.32 -0.32 5.64 -1 7 C-2 4 -2 4 -1.0625 1.8125 C-0.5365625 0.9153125 -0.5365625 0.9153125 0 0 Z " fill="#E55F5A" transform="translate(376,323)"/>
<path d="M0 0 C0.33 0.99 0.66 1.98 1 3 C0.34 3 -0.32 3 -1 3 C-1.66 4.65 -2.32 6.3 -3 8 C-3.33 8 -3.66 8 -4 8 C-4 5.69 -4 3.38 -4 1 C-2.68 0.67 -1.36 0.34 0 0 Z " fill="#E46163" transform="translate(413,278)"/>
<path d="M0 0 C0.66 0 1.32 0 2 0 C2 1.32 2 2.64 2 4 C2.66 4 3.32 4 4 4 C4 5.32 4 6.64 4 8 C3.01 8.33 2.02 8.66 1 9 C0.67 6.03 0.34 3.06 0 0 Z " fill="#E73E3E" transform="translate(191,152)"/>
<path d="M0 0 C0.99 0.33 1.98 0.66 3 1 C3 4.63 3 8.26 3 12 C2.34 11.67 1.68 11.34 1 11 C0.5859375 8.49609375 0.5859375 8.49609375 0.375 5.4375 C0.30023438 4.42558594 0.22546875 3.41367188 0.1484375 2.37109375 C0.09945313 1.58863281 0.05046875 0.80617188 0 0 Z " fill="#DD4B52" transform="translate(422,118)"/>
<path d="M0 0 C2.36841312 1.57894208 4.06745228 2.9754262 6 5 C5.67 5.99 5.34 6.98 5 8 C4.34 7.67 3.68 7.34 3 7 C3 6.34 3 5.68 3 5 C2.01 4.67 1.02 4.34 0 4 C0 2.68 0 1.36 0 0 Z " fill="#E14C4F" transform="translate(442,54)"/>
<path d="M0 0 C3.81538462 2.46153846 3.81538462 2.46153846 4.75 5.1875 C4.8325 5.785625 4.915 6.38375 5 7 C3.68 7 2.36 7 1 7 C0.67 4.69 0.34 2.38 0 0 Z " fill="#E75A5F" transform="translate(250,187)"/>
<path d="M0 0 C1 2 1 2 0.125 5 C-1 8 -1 8 -2 10 C-2.66 10 -3.32 10 -4 10 C-3.43454163 6.04179141 -2.19097652 3.3340947 0 0 Z " fill="#E98D8E" transform="translate(416,180)"/>
<path d="M0 0 C0.66 0.33 1.32 0.66 2 1 C2 2.32 2 3.64 2 5 C1.34 5 0.68 5 0 5 C0.33 6.65 0.66 8.3 1 10 C0.01 10 -0.98 10 -2 10 C-1.85950482 8.52031676 -1.71245174 7.04125484 -1.5625 5.5625 C-1.48128906 4.73878906 -1.40007812 3.91507812 -1.31640625 3.06640625 C-1 1 -1 1 0 0 Z " fill="#E33F3D" transform="translate(203,81)"/>
<path d="M0 0 C4.455 0.99 4.455 0.99 9 2 C8.67 2.66 8.34 3.32 8 4 C6.02 4 4.04 4 2 4 C2 3.34 2 2.68 2 2 C1.34 2 0.68 2 0 2 C0 1.34 0 0.68 0 0 Z " fill="#E02424" transform="translate(378,9)"/>
<path d="M0 0 C0 3 0 3 -1 5 C-2.9375 5.75 -2.9375 5.75 -5 6 C-5.66 5.34 -6.32 4.68 -7 4 C-4.69 2.68 -2.38 1.36 0 0 Z " fill="#EB7776" transform="translate(381,220)"/>
<path d="M0 0 C0.66 0.33 1.32 0.66 2 1 C1.67 2.32 1.34 3.64 1 5 C0.34 5 -0.32 5 -1 5 C-1 5.99 -1 6.98 -1 8 C-1.66 8 -2.32 8 -3 8 C-2.25 2.25 -2.25 2.25 0 0 Z " fill="#E24F50" transform="translate(410,191)"/>
<path d="M0 0 C3.24208567 0.35049575 4.61527704 0.56221181 6.8125 3.0625 C7.204375 3.701875 7.59625 4.34125 8 5 C5 5 5 5 2.3125 2.5 C1.549375 1.675 0.78625 0.85 0 0 Z " fill="#E6706B" transform="translate(389,68)"/>
<path d="M0 0 C3.79303725 1.00193437 6.71536341 1.81024227 10 4 C9.67 4.66 9.34 5.32 9 6 C8.34 6 7.68 6 7 6 C7 5.34 7 4.68 7 4 C6.030625 3.71125 5.06125 3.4225 4.0625 3.125 C1 2 1 2 0 0 Z " fill="#ED7B81" transform="translate(380,62)"/>
<path d="M0 0 C1.32 0.33 2.64 0.66 4 1 C4 1.66 4 2.32 4 3 C4.66 3.33 5.32 3.66 6 4 C6 4.99 6 5.98 6 7 C1.125 2.25 1.125 2.25 0 0 Z " fill="#EC7676" transform="translate(272,309)"/>
<path d="M0 0 C0.66 0.33 1.32 0.66 2 1 C2 3.31 2 5.62 2 8 C1.01 8 0.02 8 -1 8 C-1.08226668 4.95613276 -0.97608217 2.92824652 0 0 Z " fill="#EA3534" transform="translate(250,272)"/>
<path d="M0 0 C2.86724686 0.57344937 3.8614515 0.8614515 6 3 C5.67 3.66 5.34 4.32 5 5 C3.0625 4.1875 3.0625 4.1875 1 3 C0.67 2.01 0.34 1.02 0 0 Z " fill="#E15554" transform="translate(238,262)"/>
<path d="M0 0 C0.33 0.99 0.66 1.98 1 3 C0.34 3.66 -0.32 4.32 -1 5 C-1.70710678 6.64991582 -2.37943989 8.31562256 -3 10 C-4.43088528 7.13822943 -3.59991697 5.06624227 -3 2 C-2.01 2 -1.02 2 0 2 C0 1.34 0 0.68 0 0 Z " fill="#F2A1A2" transform="translate(452,214)"/>
<path d="M0 0 C0.66 0 1.32 0 2 0 C1.67 1.98 1.34 3.96 1 6 C-0.32 6.33 -1.64 6.66 -3 7 C-1.125 1.125 -1.125 1.125 0 0 Z " fill="#E80A09" transform="translate(233,40)"/>
<path d="M0 0 C3.45925163 1.2491742 6.14693203 2.67527795 9 5 C8.01 5.33 7.02 5.66 6 6 C5.34 5.67 4.68 5.34 4 5 C4 4.34 4 3.68 4 3 C3.01 3 2.02 3 1 3 C0.67 2.01 0.34 1.02 0 0 Z " fill="#EB7675" transform="translate(397,16)"/>
</svg>
